<svg width="1012" height="600" viewBox="0 0 1012 600" fill="none" xmlns="http://www.w3.org/2000/svg">
<g clip-path="url(#clip0_20_664)">
<g opacity="0.3">
<path d="M611.472 20H541.735V89.7365H611.472V20Z" fill="#818181"/>
<path d="M751.004 20H681.268V89.7365H751.004V20Z" fill="#818181"/>
<path d="M890.474 20H820.737V89.7365H890.474V20Z" fill="#818181"/>
<path d="M541.736 89.7383H472V159.475H541.736V89.7383Z" fill="#818181"/>
<path d="M681.213 89.7383H611.477V159.475H681.213V89.7383Z" fill="#818181"/>
<path d="M820.739 89.7383H751.003V159.475H820.739V89.7383Z" fill="#818181"/>
<path d="M611.472 159.53H541.735V229.266H611.472V159.53Z" fill="#818181"/>
<path d="M751.004 159.53H681.268V229.266H751.004V159.53Z" fill="#818181"/>
<path d="M890.474 159.53H820.737V229.266H890.474V159.53Z" fill="#818181"/>
<path d="M541.736 229.265H472V299.002H541.736V229.265Z" fill="#818181"/>
<path d="M681.213 229.265H611.477V299.002H681.213V229.265Z" fill="#818181"/>
<path d="M820.739 229.265H751.003V299.002H820.739V229.265Z" fill="#818181"/>
<path d="M611.472 299.002H541.735V368.739H611.472V299.002Z" fill="#818181"/>
<path d="M751.004 299.002H681.268V368.739H751.004V299.002Z" fill="#818181"/>
<path d="M890.474 299.002H820.737V368.739H890.474V299.002Z" fill="#818181"/>
<path d="M541.736 368.794H472V438.531H541.736V368.794Z" fill="#818181"/>
<path d="M681.213 368.794H611.477V438.531H681.213V368.794Z" fill="#818181"/>
<path d="M820.739 368.794H751.003V438.531H820.739V368.794Z" fill="#818181"/>
<path d="M611.472 438.529H541.735V508.266H611.472V438.529Z" fill="#818181"/>
<path d="M751.004 438.529H681.268V508.266H751.004V438.529Z" fill="#818181"/>
<path d="M890.474 438.529H820.737V508.266H890.474V438.529Z" fill="#818181"/>
<path d="M541.736 508.268H472V578.004H541.736V508.268Z" fill="#818181"/>
<path d="M681.213 508.268H611.477V578.004H681.213V508.268Z" fill="#818181"/>
<path d="M820.739 508.268H751.003V578.004H820.739V508.268Z" fill="#818181"/>
</g>
<path d="M696.208 533.305C692.125 567.393 634.085 683.673 610.279 686.425C586.472 689.178 566.184 683.071 542.104 683.071C518.024 683.071 497.717 689.233 473.929 686.425C450.141 683.618 392.101 567.356 388.018 533.305C383.934 499.254 435.193 398.851 439.185 382.008C443.177 365.165 452.674 320.869 452.674 320.869L542.159 320.997L633.301 320.869C633.301 320.869 641.103 365.329 645.077 382.099C649.051 398.869 700.273 499.181 696.208 533.305Z" fill="#3F3F46"/>
<path d="M590.3 154.478C599.323 142.174 643.728 102.782 651.985 103.001C660.243 103.22 671.599 163.939 673.094 176.863C674.589 189.787 666.623 232.57 666.623 232.57L590.3 154.478Z" fill="#3F3F46"/>
<path d="M592.36 156.593C599.506 146.859 632.7 114.667 639.226 114.868C645.752 115.068 654.739 163.064 655.923 173.199C657.108 183.334 651.148 216.638 651.148 216.638L592.36 156.593Z" fill="#F9A8D4"/>
<path d="M612.083 186.141C621.945 175.569 637.475 168.132 652.022 172.178C656.774 173.544 661.122 176.047 664.691 179.47C663.615 178.905 662.54 178.321 661.519 177.647C660.499 177.027 659.418 176.514 658.292 176.116C642.525 169.134 625.171 176.663 612.083 186.087V186.141Z" fill="#18181B"/>
<path d="M607.617 180.509C622 160.768 648.048 148.281 672.365 154.442C675.764 155.32 679.101 156.423 682.354 157.742C654.246 149.393 627.505 160.002 607.617 180.473V180.509Z" fill="#18181B"/>
<path d="M493.507 154.478C484.484 142.174 440.079 102.782 431.803 103.001C423.527 103.22 412.207 163.939 410.749 176.863C409.291 189.787 417.238 232.57 417.238 232.57L493.507 154.478Z" fill="#3F3F46"/>
<path d="M491.428 156.593C484.301 146.859 451.107 114.667 444.563 114.868C438.019 115.068 429.05 163.064 427.865 173.199C426.68 183.334 432.623 216.656 432.623 216.656L491.428 156.593Z" fill="#F9A8D4"/>
<path d="M464.979 186.141C451.891 176.717 434.519 169.189 418.769 176.17C417.643 176.565 416.561 177.078 415.543 177.702C414.504 178.285 413.447 178.868 412.371 179.524C415.94 176.102 420.288 173.599 425.04 172.233C439.623 168.186 455.117 175.624 464.979 186.196V186.141Z" fill="#18181B"/>
<path d="M469.408 180.509C449.575 160.038 422.834 149.52 394.671 157.778C397.905 156.449 401.224 155.334 404.606 154.442C428.977 148.244 455.008 160.731 469.408 180.509Z" fill="#18181B"/>
<path d="M678.289 252.895C679.091 266.803 651.512 307.453 625.682 334.54H458.708C432.878 307.453 405.298 266.803 406.1 252.895C406.702 242.523 460.494 166.746 474.767 154.26C483.061 146.968 513.047 144.198 542.213 144.179C571.379 144.161 601.347 147.023 609.659 154.26C623.895 166.746 677.688 242.486 678.289 252.895Z" fill="#3F3F46"/>
<path d="M585.998 414.619C580.748 447.74 562.793 527.964 542.122 528.256C521.451 527.964 503.496 447.74 498.246 414.619C493.506 384.669 513.959 324.26 519.318 316.494C504.097 301.911 497.845 275.516 499.832 264.743C502.53 250.16 526.81 243.817 526.81 243.817C526.81 243.817 530.82 204.425 542.122 204.042C553.424 204.425 557.434 243.817 557.434 243.817C557.434 243.817 581.715 250.142 584.412 264.743C586.399 275.516 580.147 301.893 564.926 316.494C570.285 324.26 590.738 384.669 585.998 414.619Z" fill="white"/>
<path d="M589.188 223.364C600.8 221.158 608.328 228.942 610.315 239.351C610.71 241.669 610.64 244.043 610.108 246.333C609.576 248.624 608.593 250.786 607.217 252.693C605.841 254.6 604.099 256.214 602.093 257.441C600.087 258.668 597.856 259.483 595.532 259.84C584.394 261.954 575.572 253.168 574.059 245.257C573.591 242.824 573.613 240.322 574.123 237.897C574.634 235.473 575.622 233.175 577.031 231.136C578.439 229.098 580.24 227.361 582.327 226.027C584.415 224.692 586.747 223.787 589.188 223.364Z" fill="#18181B"/>
<path d="M491.939 223.145C503.769 223.145 509.766 232.114 509.821 242.705C509.786 245.053 509.284 247.37 508.346 249.523C507.408 251.676 506.052 253.621 504.356 255.246C502.66 256.87 500.659 258.142 498.468 258.987C496.277 259.832 493.94 260.233 491.592 260.168C480.254 260.168 473.163 249.978 473.127 241.939C473.105 239.463 473.577 237.008 474.514 234.717C475.452 232.426 476.837 230.344 478.589 228.595C480.34 226.845 482.423 225.462 484.715 224.526C487.007 223.59 489.463 223.121 491.939 223.145Z" fill="#18181B"/>
<path d="M551.984 243.525C551.82 244.983 543.033 250.47 542.013 250.47C540.992 250.47 532.023 245.093 531.786 243.616C531.549 242.14 539.752 241.593 541.848 241.575C543.945 241.556 552.166 242.067 551.984 243.525Z" fill="#18181B"/>
<path d="M565.053 252.694C563.807 255.571 562.182 258.268 560.222 260.715C559.227 261.977 558.054 263.088 556.741 264.014C555.329 265.129 553.535 265.646 551.746 265.454C550.037 265.009 548.501 264.063 547.335 262.738C546.251 261.536 545.281 260.236 544.436 258.855C543.466 257.248 542.602 255.58 541.848 253.861C541.081 255.577 540.21 257.245 539.241 258.855C538.403 260.24 537.432 261.541 536.343 262.738C535.183 264.071 533.644 265.019 531.932 265.454C530.143 265.644 528.35 265.128 526.937 264.014C525.631 263.078 524.46 261.968 523.455 260.715C521.512 258.283 519.9 255.604 518.661 252.749C520.307 255.325 522.212 257.726 524.348 259.913C525.376 260.972 526.533 261.897 527.794 262.665C528.373 262.993 528.984 263.261 529.616 263.467C529.934 263.541 530.257 263.59 530.583 263.613H531.057H531.494C532.736 263.143 533.827 262.342 534.648 261.298C535.582 260.164 536.406 258.943 537.108 257.652C538.552 255.031 539.771 252.293 540.754 249.468L541.775 246.642L542.778 249.468C543.761 252.293 544.98 255.031 546.423 257.652C547.125 258.948 547.955 260.169 548.902 261.298C549.723 262.342 550.813 263.143 552.056 263.613H552.475H552.913C553.232 263.588 553.549 263.54 553.861 263.467C554.527 263.273 555.169 263.004 555.775 262.665C557.037 261.893 558.2 260.968 559.238 259.913C561.417 257.71 563.365 255.292 565.053 252.694Z" fill="#18181B"/>
<path d="M616.312 255.246C620.305 254.736 624.315 254.462 628.325 254.171C632.335 253.879 636.346 253.806 640.374 253.733C648.413 253.588 656.452 253.733 664.472 254.207C672.493 254.681 680.514 255.392 688.479 256.504C692.472 257.014 696.427 257.689 700.401 258.327C702.37 258.655 704.338 259.056 706.307 259.475L712.213 260.715C704.265 259.512 696.336 258.272 688.352 257.47C684.378 257.014 680.386 256.65 676.394 256.267C672.402 255.884 668.41 255.647 664.4 255.465C656.415 254.936 648.395 254.754 640.374 254.699C632.354 254.645 624.333 254.718 616.312 255.246Z" fill="#18181B"/>
<path d="M619.448 259.913C626.74 259.913 633.922 260.241 641.159 260.77C648.395 261.298 655.577 262.155 662.759 263.103C669.941 264.051 677.087 265.309 684.178 266.749C691.269 268.189 698.305 270.012 705.25 272.035C701.696 271.342 698.196 270.431 694.641 269.793L689.318 268.699L683.996 267.733C680.441 267.077 676.868 266.494 673.314 265.91C669.759 265.327 666.168 264.798 662.577 264.343C655.431 263.304 648.249 262.52 641.067 261.736C637.422 261.353 633.776 261.025 630.258 260.715C626.74 260.405 623.058 260.168 619.448 259.913Z" fill="#18181B"/>
<path d="M617.242 264.361C623.258 264.944 629.218 265.91 635.161 267.022C641.103 268.134 646.991 269.483 652.861 270.905C658.73 272.327 664.545 273.986 670.287 275.808C673.186 276.702 676.029 277.631 678.891 278.634C681.753 279.636 684.579 280.694 687.404 281.769C681.589 280.11 675.829 278.36 670.014 276.775C664.199 275.189 658.384 273.603 652.533 272.163C646.681 270.723 640.83 269.319 634.96 268.007C632.026 267.332 629.073 266.712 626.12 266.184C623.166 265.655 620.213 264.944 617.242 264.361Z" fill="#18181B"/>
<path d="M468.078 255.246C464.086 254.736 460.075 254.462 456.065 254.171C452.055 253.879 448.044 253.806 444.016 253.733C435.977 253.588 427.938 253.733 419.918 254.207C411.897 254.681 403.877 255.392 395.911 256.504C391.919 257.014 387.963 257.689 383.989 258.327C382.021 258.655 380.052 259.056 378.083 259.475L372.195 260.715C380.125 259.512 388.054 258.272 396.038 257.47C400.012 257.014 404.004 256.65 407.996 256.267C411.988 255.884 415.98 255.647 419.991 255.465C427.993 254.936 435.995 254.754 444.016 254.699C452.037 254.645 460.057 254.718 468.078 255.246Z" fill="#18181B"/>
<path d="M464.943 259.913C457.651 259.913 450.469 260.241 443.251 260.77C436.032 261.298 428.814 262.155 421.631 263.103C414.449 264.051 407.304 265.309 400.213 266.749C393.122 268.189 386.086 270.012 379.141 272.035C382.695 271.342 386.195 270.431 389.768 269.793L395.072 268.699L400.413 267.733C403.95 267.077 407.523 266.494 411.095 265.91C414.668 265.327 418.223 264.798 421.814 264.343C428.959 263.304 436.141 262.52 443.342 261.736C446.987 261.353 450.524 261.025 454.133 260.715C457.742 260.405 461.333 260.168 464.943 259.913Z" fill="#18181B"/>
<path d="M467.149 264.361C461.133 264.944 455.172 265.91 449.23 267.022C443.287 268.134 437.399 269.483 431.53 270.905C425.66 272.327 419.864 273.986 414.103 275.808C411.223 276.702 408.361 277.631 405.499 278.634C402.638 279.636 399.812 280.694 397.005 281.769C402.802 280.11 408.562 278.36 414.377 276.775C420.192 275.189 426.007 273.603 431.858 272.163C437.709 270.723 443.561 269.319 449.43 268.007C452.365 267.332 455.318 266.712 458.271 266.184C461.224 265.655 464.177 264.944 467.149 264.361Z" fill="#18181B"/>
<path d="M480.017 197.571C480.655 195.683 481.726 193.972 483.144 192.573C484.562 191.174 486.288 190.126 488.183 189.514C490.023 188.777 492.005 188.461 493.983 188.591C495.961 188.72 497.884 189.291 499.613 190.261C497.984 191.156 496.297 191.942 494.563 192.613C489.796 194.528 484.927 196.183 479.98 197.571H480.017Z" fill="#18181B"/>
<path d="M607.617 201.709C602.756 200.068 597.991 198.157 593.344 195.985C591.658 195.217 590.02 194.347 588.44 193.378C590.219 192.497 592.172 192.026 594.157 192.001C596.141 191.976 598.106 192.397 599.906 193.232C601.763 193.946 603.428 195.085 604.767 196.556C606.105 198.028 607.081 199.793 607.617 201.709Z" fill="#18181B"/>
<path d="M551.948 323.767C548.131 319.536 545.211 314.575 543.362 309.184C543.235 308.783 542.378 308.747 542.141 309.184C541.467 310.278 539.607 313.322 539.352 313.778C539.225 313.468 536.016 305.794 540.829 290.318C540.829 290.318 540.61 290.172 540.555 290.318C530.712 304.901 537.912 316.822 538.732 317.788C539.297 318.426 542.159 313.596 542.506 312.976C543.976 317.664 547.141 321.635 551.383 324.114C551.693 324.114 552.112 323.968 551.948 323.767Z" fill="#18181B"/>
<path d="M406.994 464.401C391.098 471.802 367 514.093 367 536.86C367 559.628 389.476 652.921 410.384 665.226C431.292 677.53 446.294 681.449 465.325 682.033C484.356 682.616 514.433 683.09 527.156 667.249C540.955 650.06 527.156 578.148 505.373 549.019C483.371 519.616 427.683 505.434 427.683 505.434L406.994 464.401Z" fill="#3F3F46"/>
<path d="M409.618 503.155C437.07 502.955 474.84 518.923 495.894 536.477C518.807 555.818 527.794 593.223 532.351 621.787C533.882 634.31 535.122 647.052 532.242 659.538C531.561 662.803 530.146 665.87 528.104 668.507C513.284 684.621 485.613 683.965 465.471 682.087C484.793 682.561 512.391 682.324 525.953 666.757C527.661 664.402 528.814 661.691 529.325 658.827C531.731 646.906 530.583 634.31 528.961 622.261C525.115 598.144 518.534 573.536 505.774 552.591C489.879 527.509 438.966 504.759 409.709 503.155H409.618Z" fill="#18181B"/>
<path d="M416.363 500.858C420.548 501.122 424.536 502.726 427.738 505.433C423.807 504.281 419.997 502.748 416.363 500.858Z" fill="#18181B"/>
<path d="M677.232 464.401C693.127 471.802 717.171 514.147 717.171 536.86C717.171 559.573 694.695 652.921 673.787 665.226C652.879 677.53 637.877 681.449 618.864 682.033C599.852 682.616 569.738 683.09 557.014 667.249C543.234 650.06 557.014 578.148 578.889 549.019C600.872 519.616 656.579 505.434 656.579 505.434L677.232 464.401Z" fill="#3F3F46"/>
<path d="M674.608 503.155C645.351 504.778 594.493 527.472 578.543 552.591C565.783 573.554 559.221 598.163 555.375 622.261C553.734 634.31 552.604 646.906 554.992 658.827C555.502 661.695 556.661 664.407 558.382 666.757C571.944 682.342 599.506 682.543 618.865 682.087C598.722 683.91 571.015 684.621 556.231 668.507C554.184 665.871 552.763 662.804 552.075 659.538C549.213 647.052 550.435 634.31 551.966 621.787C556.432 593.223 565.419 555.836 588.332 536.477C609.422 518.905 647.101 502.955 674.608 503.155Z" fill="#18181B"/>
<path d="M667.863 500.858C664.235 502.748 660.432 504.281 656.507 505.433C659.702 502.727 663.684 501.122 667.863 500.858Z" fill="#18181B"/>
<path d="M493.324 345.441C493.324 345.441 529.234 678.022 529.234 679.608C529.234 681.194 534.976 685.259 537.474 687.993C539.971 690.727 541.812 698.93 540.518 699.568C533.978 701.369 527.312 702.673 520.576 703.469C516.93 703.469 499.175 700.297 498.155 698.402C497.169 695.975 496.922 693.312 497.444 690.746C498.009 689.743 501.636 680.629 501.636 680.045C501.636 679.462 467.093 584.491 459.71 557.312C456.065 544.042 423.764 455.032 423.764 455.032C426.48 447.904 444.963 359.769 493.324 345.441Z" fill="#3F3F46"/>
<path d="M497.389 695.467C496.78 692.774 497.142 689.953 498.41 687.501L501.144 679.845C498.464 674.139 495.22 664.077 492.449 656.877C472.561 602.337 453.64 547.031 436.906 491.471C457.851 545.573 476.918 600.842 494.727 656.093C497.206 664.114 500.196 672.189 502.238 680.264L499.029 687.756C497.596 690.055 497.015 692.784 497.389 695.467Z" fill="#18181B"/>
<path d="M502.438 424.298C510.897 485.218 518.06 554.104 524.167 615.699C525.99 637.008 528.086 658.299 529.636 679.644C530.819 681.297 532.169 682.824 533.664 684.202C535.223 685.633 536.685 687.168 538.039 688.795C537.355 687.992 536.598 687.254 535.779 686.59C533.427 684.366 530.474 682.579 528.852 679.736C525.972 658.517 523.511 637.263 520.941 616.027C514.105 554.523 506.777 485.802 502.384 424.371L502.438 424.298Z" fill="#18181B"/>
<path d="M591.066 345.441C591.066 345.441 555.247 678.022 555.101 679.608C554.955 681.194 549.359 685.259 546.861 687.993C544.364 690.727 542.523 698.93 543.817 699.568C550.393 701.374 557.096 702.678 563.869 703.469C567.514 703.469 585.251 700.297 586.272 698.402C587.257 695.975 587.504 693.312 586.983 690.746C586.417 689.743 582.79 680.629 582.79 680.045C582.79 679.462 617.333 584.491 624.716 557.312C628.362 544.042 660.681 455.032 660.681 455.032C657.91 447.904 639.426 359.769 591.066 345.441Z" fill="#3F3F46"/>
<path d="M587.001 695.467C587.657 692.641 586.545 690.253 585.379 687.756L582.098 680.264C584.176 672.189 587.129 664.114 589.608 656.093C607.435 600.842 626.484 545.573 647.429 491.471C630.695 547.013 611.774 602.337 591.886 656.877C589.116 664.059 585.871 674.176 583.21 679.845L585.926 687.501C587.192 689.954 587.553 692.774 586.946 695.467H587.001Z" fill="#18181B"/>
<path d="M581.97 424.298C577.559 485.637 570.231 554.505 563.395 615.953C560.825 637.19 558.364 658.444 555.484 679.662C553.88 682.542 550.891 684.274 548.557 686.516C547.738 687.181 546.981 687.919 546.297 688.722C547.66 687.103 549.121 685.569 550.672 684.128C552.163 682.747 553.513 681.221 554.7 679.571C556.304 658.226 558.346 636.935 560.169 615.625C566.294 554.031 573.439 485.309 581.916 424.225L581.97 424.298Z" fill="#18181B"/>
</g>
<rect x="252" y="10" width="580" height="580" rx="50" stroke="#18181B" stroke-width="20"/>
<path d="M8 163C8 139.804 26.804 121 50 121H280C303.196 121 322 139.804 322 163V349H50C26.804 349 8 330.196 8 307V163Z" fill="#A7F3D0" stroke="#18181B" stroke-width="16"/>
<path d="M1004 505C1004 528.196 985.196 547 962 547H827C803.804 547 785 528.196 785 505V388H962C985.196 388 1004 406.804 1004 430V505Z" fill="#FEF08A" stroke="#18181B" stroke-width="16"/>
<path d="M220.041 173.167H110.958C104.759 173.167 98.8131 175.629 94.4294 180.013C90.0457 184.397 87.583 190.342 87.583 196.542V274.458C87.583 280.658 90.0457 286.603 94.4294 290.987C98.8131 295.37 104.759 297.833 110.958 297.833H220.041C226.241 297.833 232.186 295.37 236.57 290.987C240.954 286.603 243.416 280.658 243.416 274.458V196.542C243.416 190.342 240.954 184.397 236.57 180.013C232.186 175.629 226.241 173.167 220.041 173.167ZM110.958 282.25C108.892 282.25 106.91 281.429 105.448 279.968C103.987 278.506 103.166 276.525 103.166 274.458V255.602L128.879 229.968C130.335 228.54 132.294 227.74 134.333 227.74C136.372 227.74 138.331 228.54 139.787 229.968L192.069 282.25H110.958ZM227.833 274.458C227.833 276.525 227.012 278.506 225.551 279.968C224.09 281.429 222.108 282.25 220.041 282.25H214.042L184.356 252.408L191.212 245.551C192.669 244.123 194.627 243.324 196.666 243.324C198.706 243.324 200.664 244.123 202.121 245.551L227.833 271.186V274.458ZM227.833 249.213L213.185 234.643C208.744 230.376 202.825 227.994 196.666 227.994C190.508 227.994 184.589 230.376 180.148 234.643L173.291 241.499L150.851 219.059C146.411 214.793 140.491 212.41 134.333 212.41C128.175 212.41 122.255 214.793 117.815 219.059L103.166 233.63V196.542C103.166 194.475 103.987 192.493 105.448 191.032C106.91 189.571 108.892 188.75 110.958 188.75H220.041C222.108 188.75 224.09 189.571 225.551 191.032C227.012 192.493 227.833 194.475 227.833 196.542V249.213Z" fill="#18181B"/>
<path d="M863.5 440.375H875.125V436.5C875.125 434.445 875.942 432.473 877.395 431.02C878.848 429.567 880.82 428.75 882.875 428.75H906.125C908.18 428.75 910.152 429.567 911.605 431.02C913.058 432.473 913.875 434.445 913.875 436.5V440.375H925.5C926.528 440.375 927.513 440.783 928.24 441.51C928.967 442.237 929.375 443.222 929.375 444.25C929.375 445.278 928.967 446.263 928.24 446.99C927.513 447.717 926.528 448.125 925.5 448.125H921.625V498.5C921.625 500.555 920.808 502.527 919.355 503.98C917.902 505.433 915.93 506.25 913.875 506.25H875.125C873.07 506.25 871.098 505.433 869.645 503.98C868.192 502.527 867.375 500.555 867.375 498.5V448.125H863.5C862.472 448.125 861.487 447.717 860.76 446.99C860.033 446.263 859.625 445.278 859.625 444.25C859.625 443.222 860.033 442.237 860.76 441.51C861.487 440.783 862.472 440.375 863.5 440.375ZM875.125 448.125V498.5H913.875V448.125H875.125ZM882.875 440.375H906.125V436.5H882.875V440.375ZM882.875 455.875H890.625V490.75H882.875V455.875ZM898.375 455.875H906.125V490.75H898.375V455.875Z" fill="#18181B"/>
<defs>
<clipPath id="clip0_20_664">
<rect width="600" height="600" fill="white" transform="translate(223)"/>
</clipPath>
</defs>
</svg>
