<svg width="200" height="200" viewBox="0 0 200 200" fill="none" xmlns="http://www.w3.org/2000/svg">
<rect width="200" height="200" rx="30" fill="#BEF264"/>
<path d="M111.582 118.625C113.294 118.625 114.78 117.997 116.041 116.74C117.301 115.483 117.93 113.997 117.926 112.281C117.922 110.565 117.293 109.081 116.041 107.829C114.788 106.576 113.302 105.946 111.582 105.938C109.862 105.929 108.378 106.56 107.129 107.829C105.881 109.097 105.25 110.582 105.238 112.281C105.226 113.981 105.857 115.467 107.129 116.74C108.402 118.013 109.886 118.641 111.582 118.625ZM107.209 94.7618C107.01 97.2569 109.081 99.2917 111.584 99.2917V99.2917C114.085 99.2917 115.99 97.2388 116.458 94.7815C116.601 94.0313 116.788 93.3959 117.02 92.8755C117.624 91.5181 119.033 89.7298 121.249 87.5105C124.27 84.4896 126.283 82.0488 127.29 80.188C128.297 78.3271 128.801 76.136 128.801 73.6146C128.801 69.0834 127.214 65.3839 124.04 62.5161C120.866 59.6483 116.713 58.2124 111.582 58.2084C107.454 58.2084 103.855 59.3664 100.786 61.6823C98.8057 63.1763 97.2121 64.9846 96.0049 67.1072C94.85 69.1379 96.0306 71.5751 98.194 72.4566V72.4566C100.553 73.4178 103.128 72.1154 104.701 70.111C105.168 69.5159 105.675 68.9981 106.223 68.5577C107.786 67.3011 109.572 66.6707 111.582 66.6667C113.999 66.6667 115.962 67.3474 117.473 68.7088C118.983 70.0702 119.738 71.9068 119.738 74.2188C119.738 75.6285 119.335 76.9637 118.53 78.2244C117.724 79.4851 116.315 81.07 114.301 82.9792C110.978 85.8993 108.94 88.1912 108.187 89.8546C107.712 90.9024 107.386 92.5381 107.209 94.7618ZM79.2487 136.75C70.4121 136.75 63.2487 129.587 63.2487 120.75V56.0834C63.2487 47.2468 70.4121 40.0834 79.2487 40.0834H143.915C152.752 40.0834 159.915 47.2468 159.915 56.0834V120.75C159.915 129.587 152.752 136.75 143.915 136.75H79.2487ZM75.332 117.667C75.332 121.533 78.466 124.667 82.332 124.667H140.832C144.698 124.667 147.832 121.533 147.832 117.667V59.1667C147.832 55.3007 144.698 52.1667 140.832 52.1667H82.332C78.466 52.1667 75.332 55.3007 75.332 59.1667V117.667ZM55.082 160.917C46.2455 160.917 39.082 153.753 39.082 144.917V70.2917C39.082 66.955 41.787 64.25 45.1237 64.25V64.25C48.4604 64.25 51.1654 66.955 51.1654 70.2917V141.833C51.1654 145.699 54.2994 148.833 58.1654 148.833H129.707C133.044 148.833 135.749 151.538 135.749 154.875V154.875C135.749 158.212 133.044 160.917 129.707 160.917H55.082Z" fill="#1C1917"/>
</svg>
