<svg width="200" height="200" viewBox="0 0 200 200" fill="none" xmlns="http://www.w3.org/2000/svg">
<rect width="200" height="200" rx="31" fill="#FEF08A"/>
<rect x="16" y="16" width="168" height="168" rx="17" stroke="#18181B" stroke-width="9"/>
<path d="M56.6667 62.0835H72.9167V56.6668C72.9167 53.7937 74.058 51.0381 76.0897 49.0065C78.1213 46.9749 80.8768 45.8335 83.75 45.8335H116.25C119.123 45.8335 121.879 46.9749 123.91 49.0065C125.942 51.0381 127.083 53.7937 127.083 56.6668V62.0835H143.333C144.77 62.0835 146.148 62.6542 147.163 63.67C148.179 64.6858 148.75 66.0636 148.75 67.5002C148.75 68.9368 148.179 70.3145 147.163 71.3303C146.148 72.3461 144.77 72.9168 143.333 72.9168H137.917V143.334C137.917 146.207 136.775 148.962 134.744 150.994C132.712 153.025 129.957 154.167 127.083 154.167H72.9167C70.0435 154.167 67.288 153.025 65.2563 150.994C63.2247 148.962 62.0833 146.207 62.0833 143.334V72.9168H56.6667C55.2301 72.9168 53.8523 72.3461 52.8365 71.3303C51.8207 70.3145 51.25 68.9368 51.25 67.5002C51.25 66.0636 51.8207 64.6858 52.8365 63.67C53.8523 62.6542 55.2301 62.0835 56.6667 62.0835ZM72.9167 72.9168V143.334H127.083V72.9168H72.9167ZM83.75 62.0835H116.25V56.6668H83.75V62.0835ZM83.75 83.7502H94.5833V132.5H83.75V83.7502ZM105.417 83.7502H116.25V132.5H105.417V83.7502Z" fill="#18181B"/>
</svg>
